<svg width="459" height="140" viewBox="0 0 459 140" fill="none" xmlns="http://www.w3.org/2000/svg">
<mask id="path-1-outside-1_3695_25514" maskUnits="userSpaceOnUse" x="0" y="-3" width="459" height="143" fill="black">
<rect fill="white" y="-3" width="459" height="143"/>
<path d="M3.968 134.936C3.328 134.936 2.816 134.744 2.432 134.36C2.048 133.848 1.92 133.272 2.048 132.632L17.984 2.84C17.984 2.2 18.24 1.688 18.752 1.30399C19.264 0.791992 19.84 0.535992 20.48 0.535992H67.904C81.472 0.535992 92.224 3.86399 100.16 10.52C108.224 17.048 112.256 25.88 112.256 37.016C112.256 38.168 112.128 40.024 111.872 42.584L105.728 92.888C104.704 101.208 101.76 108.568 96.896 114.968C92.032 121.368 85.632 126.296 77.696 129.752C69.888 133.208 61.12 134.936 51.392 134.936H3.968ZM36.032 106.712C36.032 107.352 36.288 107.672 36.8 107.672H56C60.992 107.672 65.28 105.88 68.864 102.296C72.448 98.584 74.688 93.656 75.584 87.512L80.384 47.96C80.512 47.064 80.576 45.848 80.576 44.312C80.576 39.192 79.232 35.16 76.544 32.216C73.856 29.272 70.208 27.8 65.6 27.8H46.784C46.016 27.8 45.632 28.12 45.632 28.76L36.032 106.712ZM186.49 134.936C185.21 134.936 184.378 134.36 183.993 133.208L168.441 82.136C168.185 81.624 167.802 81.368 167.29 81.368H155.001C154.361 81.368 154.042 81.688 154.042 82.328L147.898 132.632C147.77 133.272 147.45 133.848 146.938 134.36C146.554 134.744 146.042 134.936 145.402 134.936H118.906C118.266 134.936 117.753 134.744 117.369 134.36C116.985 133.848 116.857 133.272 116.985 132.632L132.921 2.84C132.921 2.2 133.177 1.688 133.689 1.30399C134.201 0.791992 134.777 0.535992 135.417 0.535992H190.714C201.978 0.535992 210.874 3.73599 217.402 10.136C223.93 16.536 227.194 25.176 227.194 36.056C227.194 37.336 227.066 39.384 226.81 42.2C225.658 50.776 222.65 58.2 217.786 64.472C212.922 70.744 206.649 75.288 198.969 78.104C198.329 78.36 198.138 78.808 198.394 79.448L216.442 132.248C216.57 132.504 216.633 132.824 216.633 133.208C216.633 134.36 215.866 134.936 214.329 134.936H186.49ZM161.721 27.8C160.953 27.8 160.57 28.12 160.57 28.76L157.305 56.024C157.049 56.664 157.306 56.984 158.074 56.984H178.81C183.802 56.984 187.898 55.448 191.098 52.376C194.426 49.304 196.09 45.272 196.09 40.28C196.09 36.44 194.809 33.432 192.249 31.256C189.817 28.952 186.49 27.8 182.266 27.8H161.721ZM279.361 137.048C265.537 137.048 254.593 133.208 246.529 125.528C238.465 117.848 234.432 107.48 234.432 94.424C234.432 91.224 234.56 88.728 234.816 86.936L239.617 48.536C240.769 38.808 243.905 30.232 249.025 22.808C254.273 15.256 260.928 9.432 268.992 5.336C277.184 1.112 286.272 -1 296.257 -1C305.472 -1 313.472 0.727997 320.257 4.18399C327.04 7.63999 332.225 12.568 335.809 18.968C339.521 25.24 341.376 32.6 341.376 41.048C341.376 44.376 341.248 46.872 340.992 48.536L336.384 86.936C335.232 96.92 332.033 105.688 326.785 113.24C321.665 120.792 315.008 126.68 306.816 130.904C298.625 135 289.473 137.048 279.361 137.048ZM282.625 109.784C288.641 109.784 293.697 107.8 297.793 103.832C302.017 99.736 304.513 94.424 305.281 87.896L310.272 48.152C310.4 47.384 310.465 46.232 310.465 44.696C310.465 39.064 308.864 34.584 305.664 31.256C302.592 27.928 298.368 26.264 292.992 26.264C287.104 26.264 282.048 28.312 277.824 32.408C273.728 36.376 271.297 41.624 270.529 48.152L265.729 87.896C265.601 88.792 265.536 90.072 265.536 91.736C265.536 97.368 267.073 101.784 270.145 104.984C273.217 108.184 277.377 109.784 282.625 109.784ZM418.477 0.535992C430.125 0.535992 439.341 3.79999 446.125 10.328C453.037 16.856 456.492 25.688 456.492 36.824C456.492 38.104 456.365 40.28 456.109 43.352C455.085 51.672 452.333 59.032 447.853 65.432C443.373 71.832 437.548 76.76 430.38 80.216C423.34 83.672 415.405 85.4 406.573 85.4H383.917C383.405 85.4 383.02 85.72 382.764 86.36L377.197 132.632C377.069 133.272 376.749 133.848 376.237 134.36C375.853 134.744 375.34 134.936 374.701 134.936H348.204C347.564 134.936 347.052 134.744 346.668 134.36C346.284 133.848 346.156 133.272 346.284 132.632L362.22 2.84C362.348 2.2 362.604 1.688 362.988 1.30399C363.5 0.791992 364.076 0.535992 364.716 0.535992H418.477ZM406.189 60.056C411.821 60.056 416.429 58.328 420.013 54.872C423.597 51.416 425.388 46.936 425.388 41.432C425.388 37.336 423.98 34.072 421.164 31.64C418.476 29.08 414.828 27.8 410.22 27.8H391.021C390.509 27.8 390.125 28.12 389.868 28.76L386.22 59.096C385.964 59.736 386.22 60.056 386.988 60.056H406.189Z"/>
</mask>
<path d="M3.968 134.936C3.328 134.936 2.816 134.744 2.432 134.36C2.048 133.848 1.92 133.272 2.048 132.632L17.984 2.84C17.984 2.2 18.24 1.688 18.752 1.30399C19.264 0.791992 19.84 0.535992 20.48 0.535992H67.904C81.472 0.535992 92.224 3.86399 100.16 10.52C108.224 17.048 112.256 25.88 112.256 37.016C112.256 38.168 112.128 40.024 111.872 42.584L105.728 92.888C104.704 101.208 101.76 108.568 96.896 114.968C92.032 121.368 85.632 126.296 77.696 129.752C69.888 133.208 61.12 134.936 51.392 134.936H3.968ZM36.032 106.712C36.032 107.352 36.288 107.672 36.8 107.672H56C60.992 107.672 65.28 105.88 68.864 102.296C72.448 98.584 74.688 93.656 75.584 87.512L80.384 47.96C80.512 47.064 80.576 45.848 80.576 44.312C80.576 39.192 79.232 35.16 76.544 32.216C73.856 29.272 70.208 27.8 65.6 27.8H46.784C46.016 27.8 45.632 28.12 45.632 28.76L36.032 106.712ZM186.49 134.936C185.21 134.936 184.378 134.36 183.993 133.208L168.441 82.136C168.185 81.624 167.802 81.368 167.29 81.368H155.001C154.361 81.368 154.042 81.688 154.042 82.328L147.898 132.632C147.77 133.272 147.45 133.848 146.938 134.36C146.554 134.744 146.042 134.936 145.402 134.936H118.906C118.266 134.936 117.753 134.744 117.369 134.36C116.985 133.848 116.857 133.272 116.985 132.632L132.921 2.84C132.921 2.2 133.177 1.688 133.689 1.30399C134.201 0.791992 134.777 0.535992 135.417 0.535992H190.714C201.978 0.535992 210.874 3.73599 217.402 10.136C223.93 16.536 227.194 25.176 227.194 36.056C227.194 37.336 227.066 39.384 226.81 42.2C225.658 50.776 222.65 58.2 217.786 64.472C212.922 70.744 206.649 75.288 198.969 78.104C198.329 78.36 198.138 78.808 198.394 79.448L216.442 132.248C216.57 132.504 216.633 132.824 216.633 133.208C216.633 134.36 215.866 134.936 214.329 134.936H186.49ZM161.721 27.8C160.953 27.8 160.57 28.12 160.57 28.76L157.305 56.024C157.049 56.664 157.306 56.984 158.074 56.984H178.81C183.802 56.984 187.898 55.448 191.098 52.376C194.426 49.304 196.09 45.272 196.09 40.28C196.09 36.44 194.809 33.432 192.249 31.256C189.817 28.952 186.49 27.8 182.266 27.8H161.721ZM279.361 137.048C265.537 137.048 254.593 133.208 246.529 125.528C238.465 117.848 234.432 107.48 234.432 94.424C234.432 91.224 234.56 88.728 234.816 86.936L239.617 48.536C240.769 38.808 243.905 30.232 249.025 22.808C254.273 15.256 260.928 9.432 268.992 5.336C277.184 1.112 286.272 -1 296.257 -1C305.472 -1 313.472 0.727997 320.257 4.18399C327.04 7.63999 332.225 12.568 335.809 18.968C339.521 25.24 341.376 32.6 341.376 41.048C341.376 44.376 341.248 46.872 340.992 48.536L336.384 86.936C335.232 96.92 332.033 105.688 326.785 113.24C321.665 120.792 315.008 126.68 306.816 130.904C298.625 135 289.473 137.048 279.361 137.048ZM282.625 109.784C288.641 109.784 293.697 107.8 297.793 103.832C302.017 99.736 304.513 94.424 305.281 87.896L310.272 48.152C310.4 47.384 310.465 46.232 310.465 44.696C310.465 39.064 308.864 34.584 305.664 31.256C302.592 27.928 298.368 26.264 292.992 26.264C287.104 26.264 282.048 28.312 277.824 32.408C273.728 36.376 271.297 41.624 270.529 48.152L265.729 87.896C265.601 88.792 265.536 90.072 265.536 91.736C265.536 97.368 267.073 101.784 270.145 104.984C273.217 108.184 277.377 109.784 282.625 109.784ZM418.477 0.535992C430.125 0.535992 439.341 3.79999 446.125 10.328C453.037 16.856 456.492 25.688 456.492 36.824C456.492 38.104 456.365 40.28 456.109 43.352C455.085 51.672 452.333 59.032 447.853 65.432C443.373 71.832 437.548 76.76 430.38 80.216C423.34 83.672 415.405 85.4 406.573 85.4H383.917C383.405 85.4 383.02 85.72 382.764 86.36L377.197 132.632C377.069 133.272 376.749 133.848 376.237 134.36C375.853 134.744 375.34 134.936 374.701 134.936H348.204C347.564 134.936 347.052 134.744 346.668 134.36C346.284 133.848 346.156 133.272 346.284 132.632L362.22 2.84C362.348 2.2 362.604 1.688 362.988 1.30399C363.5 0.791992 364.076 0.535992 364.716 0.535992H418.477ZM406.189 60.056C411.821 60.056 416.429 58.328 420.013 54.872C423.597 51.416 425.388 46.936 425.388 41.432C425.388 37.336 423.98 34.072 421.164 31.64C418.476 29.08 414.828 27.8 410.22 27.8H391.021C390.509 27.8 390.125 28.12 389.868 28.76L386.22 59.096C385.964 59.736 386.22 60.056 386.988 60.056H406.189Z" stroke="#191919" stroke-width="4" mask="url(#path-1-outside-1_3695_25514)"/>
</svg>
