<svg class="" height="26" viewBox="0 0 131 26" fill="none" xmlns="http://www.w3.org/2000/svg"><path fill-rule="evenodd" clip-rule="evenodd" d="M94.05 1.283a25.494 25.494 0 0 0-5.87-.658h-8.023a.479.479 0 0 0-.484.47v23.66c0 .26.218.47.484.47h8.788a18.77 18.77 0 0 0 5.493-.798c1.742-.531 3.28-1.316 4.616-2.346a11.436 11.436 0 0 0 3.18-3.82c.789-1.519 1.181-3.272 1.181-5.265 0-2.247-.407-4.16-1.22-5.734-.813-1.575-1.911-2.853-3.29-3.84-1.38-.987-3.001-1.697-4.855-2.139Zm-8.217 4.348h2.86l.005.01c1.19 0 2.323.14 3.402.432 1.08.291 2.018.723 2.817 1.302a6.36 6.36 0 0 1 1.906 2.204c.475.893.712 1.941.712 3.144 0 1.387-.237 2.567-.712 3.525-.474.96-1.122 1.735-1.945 2.327-.828.592-1.8 1.015-2.928 1.27-1.127.253-2.342.38-3.654.38h-2.463a.479.479 0 0 1-.484-.47V6.1c0-.259.218-.47.484-.47ZM67.497.902C65.8.301 63.945 0 61.932 0c-2.013 0-3.867.3-5.565.902-1.699.607-3.165 1.467-4.4 2.59-1.233 1.124-2.196 2.487-2.888 4.085-.692 1.598-1.036 3.384-1.036 5.348 0 1.965.344 3.751 1.036 5.35a11.712 11.712 0 0 0 2.889 4.084c1.234 1.123 2.7 1.988 4.399 2.59 1.698.601 3.552.902 5.565.902 2.013 0 3.867-.3 5.565-.902 1.694-.602 3.165-1.467 4.399-2.59 1.234-1.124 2.197-2.487 2.89-4.085.691-1.598 1.035-3.384 1.035-5.349 0-1.964-.344-3.75-1.036-5.348a11.713 11.713 0 0 0-2.889-4.085c-1.234-1.123-2.7-1.988-4.399-2.59Zm-8.851 4.696c.982-.395 2.076-.592 3.29-.592 1.21 0 2.309.197 3.291.592a7.419 7.419 0 0 1 2.526 1.65 7.23 7.23 0 0 1 1.617 2.519c.373.973.561 2.007.561 3.163 0 1.156-.184 2.219-.561 3.178a7.212 7.212 0 0 1-1.617 2.5 7.418 7.418 0 0 1-2.526 1.65c-.982.395-2.076.592-3.29.592-1.215 0-2.309-.198-3.291-.592a7.418 7.418 0 0 1-2.526-1.65 7.237 7.237 0 0 1-1.616-2.5c-.373-.96-.562-2.04-.562-3.178 0-1.137.184-2.19.562-3.163a7.16 7.16 0 0 1 1.616-2.52 7.42 7.42 0 0 1 2.526-1.65Z" fill="#fff"></path><path d="m44.297 20.042.924 2.218c.571 1.363-.464 2.853-1.98 2.853h-1.606a2.137 2.137 0 0 1-1.974-1.283l-1.612-3.788h6.248ZM2.137 25.09c-1.515 0-2.546-1.49-1.98-2.853H.153l.924-2.219h6.252l-1.611 3.789a2.137 2.137 0 0 1-1.975 1.283H2.137ZM12.222.513c1.423 0 2.715.818 3.29 2.082l6.989 15.346h-6.175l-1.104-2.623-3.165-7.642-3.126 7.642-1.021 2.623H1.992L8.926 2.6C9.502 1.33 10.794.513 12.222.513ZM20.792 25.118a2.137 2.137 0 0 1-1.974-1.283h-.005l-1.611-3.788h10.723l-1.548 3.764a2.134 2.134 0 0 1-1.984 1.307h-3.6ZM33.065.513c1.423 0 2.715.818 3.29 2.082l6.984 15.341h-6.175l-1.104-2.623-3.165-7.642-3.126 7.642-1.02 2.623h-5.92L29.77 2.6c.576-1.27 1.873-2.087 3.296-2.087ZM129.896 22.415l-.925-2.219h-6.247l1.611 3.789a2.137 2.137 0 0 0 1.975 1.283h1.606c1.515 0 2.551-1.49 1.98-2.853ZM107.228 20.196l-.924 2.219c-.571 1.363.464 2.853 1.979 2.853h1.607c.866 0 1.645-.508 1.974-1.283l1.612-3.789h-6.248ZM121.058 15.383l-3.126-7.557-3.092 7.557-1.007 2.595h-5.851L114.84 2.81c.566-1.254 1.844-2.063 3.257-2.063 1.408 0 2.685.809 3.252 2.059l6.905 15.172h-6.107l-1.089-2.595Z" fill="#fff"></path></svg>