<svg width="406" height="112" viewBox="0 0 406 112" fill="none" xmlns="http://www.w3.org/2000/svg">
<path d="M0.0242851 108.5C-0.133143 109.455 0.496569 110.091 1.28371 110.091H41.2705C59.5321 110.091 73.7006 104.205 82.2018 86.5455C88.184 74.1364 92.592 46.4546 92.592 33.5682C92.592 12.4091 81.0998 1.90909 60.0044 1.90909H20.0177C19.2305 1.90909 18.6008 2.54545 18.4434 3.5L0.0242851 108.5ZM31.5099 86.0682C31.0376 86.0682 30.7228 85.75 30.8802 85.1136L41.113 26.8864C41.2705 26.25 41.4279 25.9318 42.0576 25.9318H50.0864C60.949 25.9318 65.5144 29.9091 65.5144 39.7727C65.5144 46.9318 61.7361 68.7273 58.4301 75.5682C54.4944 83.5227 49.2993 86.0682 39.8536 86.0682H31.5099Z" fill="white"/>
<path d="M177.186 110.091C178.131 110.091 178.603 109.136 178.446 108.182L166.953 66.8182C180.965 60.4545 190.253 47.5682 190.253 29.75C190.253 13.3636 179.075 1.90909 158.137 1.90909H116.104C115.317 1.90909 114.687 2.54545 114.53 3.5L96.1108 108.5C95.9534 109.455 96.5831 110.091 97.3702 110.091H120.984C121.929 110.091 122.559 109.455 122.716 108.5L129.171 72.0682C129.328 71.4318 129.643 71.1136 130.273 71.1136H142.395L151.683 108.5C151.998 109.614 152.47 110.091 153.729 110.091H177.186ZM148.219 48.8409H134.051C133.421 48.8409 133.106 48.5227 133.264 47.8864L137.2 25.7727C137.357 25.1364 137.672 24.8182 138.302 24.8182H152.47C159.082 24.8182 163.018 28.1591 163.018 33.8864C163.018 43.4318 156.406 48.6818 148.219 48.8409Z" fill="white"/>
<path d="M231.1 112C249.834 112 264.79 104.364 273.449 86.7046C279.273 74.7727 283.996 44.5455 283.996 34.0455C283.996 11.6136 269.828 0 248.418 0C229.526 0 214.57 7.63636 206.069 25.2955C200.245 37.2273 195.522 67.4545 195.522 77.9545C195.522 100.386 209.69 112 231.1 112ZM234.249 87.9773C226.535 87.9773 222.442 83.0455 222.442 75.4091C222.442 67.2955 227.165 40.5682 230.156 34.3636C233.147 28 238.185 24.0227 245.269 24.0227C252.983 24.0227 257.076 28.9545 257.076 36.5909C257.076 44.7046 252.353 71.4318 249.362 77.6364C246.371 84 241.333 87.9773 234.249 87.9773Z" fill="white"/>
<path d="M311.47 110.091C312.257 110.091 312.887 109.455 313.044 108.5L319.184 74.2955C319.184 73.6591 319.656 73.3409 320.286 73.3409H335.556C361.532 73.3409 380.581 57.75 380.581 30.2273C380.581 12.8864 369.876 1.90909 347.836 1.90909H306.432C305.645 1.90909 305.015 2.54545 304.858 3.5L286.439 108.5C286.281 109.455 286.911 110.091 287.698 110.091H311.47ZM337.918 50.4318H324.064C323.592 50.4318 323.434 50.1136 323.434 49.4773L327.685 25.7727C327.685 25.1364 328.157 24.8182 328.63 24.8182H342.326C349.568 24.8182 353.503 28.4773 353.503 34.6818C353.503 44.5455 347.049 50.4318 337.918 50.4318Z" fill="white"/>
<path d="M378.735 108.5C378.578 109.455 379.05 110.091 379.995 110.091H400.933C401.877 110.091 402.507 109.455 402.664 108.5L405.97 88.9318C406.128 87.9773 405.655 87.3409 404.711 87.3409H383.93C382.986 87.3409 382.199 87.9773 382.041 88.9318L378.735 108.5Z" fill="white"/>
</svg>

